<svg width="100" height="100" viewBox="0 0 100 100" fill="none" xmlns="http://www.w3.org/2000/svg">
<path d="M46.5637 91.5713C69.477 91.5713 88.0531 72.9949 88.0531 49.9998C88.0531 27.0046 69.477 8.42847 46.5637 8.42847C23.6504 8.42847 5.07422 27.0046 5.07422 49.9998C5.07422 72.9949 23.6504 91.5713 46.5637 91.5713Z" fill="#F1F2FF"/>
<path d="M92.7985 32.8966C94.652 32.8966 96.1537 31.3945 96.1537 29.5414C96.1537 27.6884 94.652 26.1863 92.7985 26.1863C90.9458 26.1863 89.4434 27.6884 89.4434 29.5414C89.4434 31.3945 90.9458 32.8966 92.7985 32.8966Z" fill="#F58220"/>
<path d="M97.7083 19.7213C98.9743 19.7213 99.9997 18.6955 99.9997 17.43C99.9997 16.1645 98.9743 15.1387 97.7083 15.1387C96.4432 15.1387 95.417 16.1645 95.417 17.43C95.417 18.6955 96.4432 19.7213 97.7083 19.7213Z" fill="#F58220"/>
<path d="M2.29133 35.2697C3.5568 35.2697 4.58267 34.2438 4.58267 32.9783C4.58267 31.7129 3.5568 30.687 2.29133 30.687C1.02586 30.687 0 31.7129 0 32.9783C0 34.2438 1.02586 35.2697 2.29133 35.2697Z" fill="#00767A"/>
<path d="M6.54635 85.1064C8.89652 85.1064 10.8017 83.2012 10.8017 80.851C10.8017 78.5009 8.89652 76.5957 6.54635 76.5957C4.19618 76.5957 2.29102 78.5009 2.29102 80.851C2.29102 83.2012 4.19618 85.1064 6.54635 85.1064Z" fill="#00767A"/>
<path d="M30.1276 58.8492L43.4974 37.6895C44.9524 35.7041 47.9991 35.7041 49.4541 37.6895L62.824 58.8492C64.2332 60.7465 62.824 63.4377 60.414 63.4377H32.5833C30.1277 63.3936 28.7179 60.7465 30.1276 58.8492Z" fill="#EF4952"/>
<path d="M46.4763 43.1067C45.2022 43.1067 44.2112 44.2266 44.3061 45.5413L45.014 53.4295C45.0606 54.2085 45.721 54.8416 46.4763 54.8416C47.2316 54.8416 47.892 54.2085 47.9387 53.4295L48.6465 45.5413C48.7415 44.1779 47.7505 43.1067 46.4763 43.1067Z" fill="white"/>
<path d="M46.4762 56.3022C45.5327 56.3022 44.7773 57.0813 44.7773 58.0552C44.7773 59.029 45.5327 59.8081 46.4762 59.8081C47.4197 59.8081 48.1751 59.029 48.1751 58.0552C48.1751 57.0813 47.4197 56.3022 46.4762 56.3022Z" fill="white"/>
</svg>
