<svg width="50" height="50" viewBox="0 0 50 50" fill="none" xmlns="http://www.w3.org/2000/svg">
<path d="M12.5036 43.75H37.4958C38.1827 43.7517 38.8449 43.4921 39.3496 43.0233C41.455 41.0623 43.1393 38.6887 44.2989 36.0485C45.4586 33.4083 46.069 30.5574 46.0929 27.671C46.2007 15.9347 36.7174 6.27776 25.0509 6.25006C13.3777 6.22235 3.90626 15.7339 3.90626 27.4709C3.90293 30.3922 4.50083 33.2824 5.66233 35.9599C6.82382 38.6372 8.52375 41.0437 10.6551 43.0276C11.1587 43.4943 11.8189 43.7523 12.5036 43.75Z" fill="#F1F2FF"/>
<path d="M36.0146 49.3215H14.7397C14.2178 49.3215 13.7171 49.1142 13.348 48.7451C12.9789 48.3759 12.7715 47.8753 12.7715 47.3533V13.3968C12.7715 12.8748 12.9789 12.3742 13.348 12.0051C13.7171 11.636 14.2178 11.4286 14.7397 11.4286H29.3377L37.9828 20.0737V47.3533C37.9828 47.6118 37.9319 47.8677 37.833 48.1065C37.7341 48.3453 37.5891 48.5622 37.4064 48.7451C37.2235 48.9279 37.0066 49.0728 36.7678 49.1717C36.529 49.2706 36.2731 49.3215 36.0146 49.3215Z" fill="white"/>
<path d="M37.982 20.0737H31.3052C31.0467 20.0737 30.7907 20.0228 30.552 19.9239C30.3132 19.8249 30.0962 19.68 29.9134 19.4972C29.7307 19.3145 29.5856 19.0975 29.4867 18.8586C29.3878 18.6199 29.3369 18.3639 29.3369 18.1054V11.4286L37.982 20.0737Z" fill="#00767A"/>
<path d="M25.2036 18.0189H16.9666C16.5492 18.0189 16.2109 18.3572 16.2109 18.7746C16.2109 19.192 16.5492 19.5303 16.9666 19.5303H25.2036C25.621 19.5303 25.9593 19.192 25.9593 18.7746C25.9593 18.3572 25.621 18.0189 25.2036 18.0189Z" fill="#FFEACC"/>
<path d="M33.5997 23.1139H16.9666C16.5492 23.1139 16.2109 23.4523 16.2109 23.8696C16.2109 24.2869 16.5492 24.6252 16.9666 24.6252H33.5997C34.0171 24.6252 34.3554 24.2869 34.3554 23.8696C34.3554 23.4523 34.0171 23.1139 33.5997 23.1139Z" fill="#FFEACC"/>
<path d="M33.5997 28.2073H16.9666C16.5492 28.2073 16.2109 28.5457 16.2109 28.9629C16.2109 29.3803 16.5492 29.7186 16.9666 29.7186H33.5997C34.0171 29.7186 34.3554 29.3803 34.3554 28.9629C34.3554 28.5457 34.0171 28.2073 33.5997 28.2073Z" fill="#FFEACC"/>
<path d="M33.5997 33.3022H16.9666C16.5492 33.3022 16.2109 33.6406 16.2109 34.0579C16.2109 34.4753 16.5492 34.8136 16.9666 34.8136H33.5997C34.0171 34.8136 34.3554 34.4753 34.3554 34.0579C34.3554 33.6406 34.0171 33.3022 33.5997 33.3022Z" fill="#FFEACC"/>
<path d="M33.6604 38.397H16.9666C16.5492 38.397 16.2109 38.7353 16.2109 39.1526C16.2109 39.57 16.5492 39.9083 16.9666 39.9083H33.6604C34.0778 39.9083 34.4161 39.57 34.4161 39.1526C34.4161 38.7353 34.0778 38.397 33.6604 38.397Z" fill="#FFEACC"/>
<path d="M45.1758 16.2869C45.4557 16.4007 45.6789 16.6211 45.7963 16.8994C45.9138 17.1778 45.9158 17.4914 45.8019 17.7713L44.8956 20.0002L42.7852 19.142L43.6915 16.913C43.8053 16.6332 44.0256 16.41 44.304 16.2925C44.5823 16.1752 44.896 16.1731 45.1758 16.2869Z" fill="#00767A"/>
<path opacity="0.15" d="M45.1758 16.2869C45.4557 16.4007 45.6789 16.6211 45.7963 16.8994C45.9138 17.1778 45.9158 17.4914 45.8019 17.7713L44.8956 20.0002L42.7852 19.142L43.6915 16.913C43.8053 16.6332 44.0256 16.41 44.304 16.2925C44.5823 16.1752 44.896 16.1731 45.1758 16.2869Z" fill="#495057"/>
<path d="M43.5741 18.1232L45.0423 18.7202C45.2077 18.7875 45.3395 18.9176 45.409 19.0822C45.4784 19.2467 45.4796 19.4321 45.4123 19.5975L36.0056 42.7312L33.29 41.627L42.6968 18.4933C42.7641 18.3279 42.8943 18.196 43.0589 18.1265C43.2233 18.0572 43.4087 18.0559 43.5741 18.1232Z" fill="#00767A"/>
<path d="M42.3572 28.8988C42.2984 28.8749 42.249 28.8324 42.2163 28.7779C42.1836 28.7234 42.1697 28.6597 42.1763 28.5966L42.3194 27.2433C42.3232 27.2074 42.3336 27.1725 42.3502 27.1403L45.2041 21.5848C45.22 21.5538 45.2293 21.5198 45.2314 21.4849C45.2335 21.4501 45.2283 21.4152 45.2162 21.3825C45.204 21.3498 45.1852 21.3199 45.1609 21.2949C45.1366 21.2698 45.1074 21.2501 45.0751 21.237L42.1404 20.0436C42.0684 20.0143 42.0111 19.9577 41.981 19.8861C41.9508 19.8145 41.9503 19.734 41.9795 19.662C42.0088 19.59 42.0655 19.5327 42.137 19.5025C42.2085 19.4722 42.2891 19.4717 42.3611 19.5009L45.2958 20.6942C45.4034 20.738 45.5007 20.8037 45.5816 20.8871C45.6625 20.9705 45.7251 21.0699 45.7655 21.1788C45.8058 21.2878 45.8231 21.4039 45.8162 21.5199C45.8092 21.6358 45.7783 21.7491 45.7252 21.8525L42.8964 27.3594L42.759 28.6582C42.7543 28.7034 42.739 28.7468 42.7145 28.785C42.6901 28.8233 42.6571 28.8553 42.6181 28.8787C42.5792 28.902 42.5353 28.916 42.49 28.9195C42.4448 28.923 42.3993 28.9159 42.3572 28.8988Z" fill="#00767A"/>
<path opacity="0.15" d="M42.3572 28.8988C42.2984 28.8749 42.249 28.8324 42.2163 28.7779C42.1836 28.7234 42.1697 28.6597 42.1763 28.5966L42.3194 27.2433C42.3232 27.2074 42.3336 27.1725 42.3502 27.1403L45.2041 21.5848C45.22 21.5538 45.2293 21.5198 45.2314 21.4849C45.2335 21.4501 45.2283 21.4152 45.2162 21.3825C45.204 21.3498 45.1852 21.3199 45.1609 21.2949C45.1366 21.2698 45.1074 21.2501 45.0751 21.237L42.1404 20.0436C42.0684 20.0143 42.0111 19.9577 41.981 19.8861C41.9508 19.8145 41.9503 19.734 41.9795 19.662C42.0088 19.59 42.0655 19.5327 42.137 19.5025C42.2085 19.4722 42.2891 19.4717 42.3611 19.5009L45.2958 20.6942C45.4034 20.738 45.5007 20.8037 45.5816 20.8871C45.6625 20.9705 45.7251 21.0699 45.7655 21.1788C45.8058 21.2878 45.8231 21.4039 45.8162 21.5199C45.8092 21.6358 45.7783 21.7491 45.7252 21.8525L42.8964 27.3594L42.759 28.6582C42.7543 28.7034 42.739 28.7468 42.7145 28.785C42.6901 28.8233 42.6571 28.8553 42.6181 28.8787C42.5792 28.902 42.5353 28.916 42.49 28.9195C42.4448 28.923 42.3993 28.9159 42.3572 28.8988Z" fill="#495057"/>
<path d="M33.2904 41.627L32.9932 46.2491L36.006 42.7312L33.2904 41.627Z" fill="#00767A"/>
<path opacity="0.15" d="M33.2904 41.627L32.9932 46.2491L36.006 42.7312L33.2904 41.627Z" fill="#495057"/>
</svg>
