<svg width="129" height="107" viewBox="0 0 129 107" fill="none" xmlns="http://www.w3.org/2000/svg">
<path d="M123.348 55.7978C123.348 69.9978 117.548 82.7978 108.248 91.9978C99.1482 101.098 86.5482 106.598 72.6482 106.598C58.8482 106.598 46.2482 100.998 37.0482 91.9978C27.7482 82.7978 21.9482 69.9978 21.9482 55.7978C21.9482 27.6978 44.6482 4.9978 72.6482 4.9978C100.648 4.9978 123.348 27.7978 123.348 55.7978Z" fill="#EAEEF9"/>
<path d="M118.949 22.4979C121.213 22.4979 123.049 20.6622 123.049 18.3979C123.049 16.1335 121.213 14.2979 118.949 14.2979C116.684 14.2979 114.849 16.1335 114.849 18.3979C114.849 20.6622 116.684 22.4979 118.949 22.4979Z" fill="#00767A"/>
<path d="M124.949 6.49795C126.495 6.49795 127.749 5.24435 127.749 3.69795C127.749 2.15155 126.495 0.897949 124.949 0.897949C123.402 0.897949 122.149 2.15155 122.149 3.69795C122.149 5.24435 123.402 6.49795 124.949 6.49795Z" fill="#00767A"/>
<path d="M23.548 22.3979C25.0944 22.3979 26.348 21.1442 26.348 19.5979C26.348 18.0515 25.0944 16.7979 23.548 16.7979C22.0016 16.7979 20.748 18.0515 20.748 19.5979C20.748 21.1442 22.0016 22.3979 23.548 22.3979Z" fill="#F58220"/>
<path d="M6.44804 76.3978C9.31993 76.3978 11.648 74.0697 11.648 71.1978C11.648 68.3259 9.31993 65.9978 6.44804 65.9978C3.57616 65.9978 1.24805 68.3259 1.24805 71.1978C1.24805 74.0697 3.57616 76.3978 6.44804 76.3978Z" fill="#F58220"/>
<path d="M108.249 29.198V91.998C99.1488 101.098 86.5488 106.598 72.6488 106.598C58.8488 106.598 46.2488 100.998 37.0488 91.998V29.198H108.249Z" fill="white"/>
<path d="M90.8482 74.4978H54.4482V79.0978H90.8482V74.4978Z" fill="#D5DAE5"/>
<path d="M90.8482 84.5979H54.4482V89.1979H90.8482V84.5979Z" fill="#D5DAE5"/>
<path d="M81.9486 94.7981H63.3486V99.3981H81.9486V94.7981Z" fill="#D5DAE5"/>
<path d="M80.3006 57.7995L76.3026 53.8015L80.301 49.803C81.3532 48.7509 81.4764 46.9829 80.3005 45.807C79.2485 44.755 77.4811 44.6313 76.3052 45.8071L72.3067 49.8056L68.3087 45.8076C67.2569 44.7558 65.4888 44.631 64.3128 45.807C63.7445 46.3753 63.441 47.0797 63.4412 47.8051C63.4414 48.5304 63.745 49.2347 64.3134 49.803L68.3113 53.801L64.3127 57.7996C63.2607 58.8516 63.1375 60.6195 64.3127 61.7948C65.3645 62.8465 67.1323 62.9717 68.3086 61.7955L72.3072 57.7968L76.3052 61.7948C77.3519 62.8416 79.1069 62.9693 80.2828 61.8122C81.607 60.7105 81.4207 58.9197 80.3006 57.7995Z" fill="#FF0000" stroke="#FF0000"/>
</svg>
