<svg width="36" height="36" viewBox="0 0 36 36" fill="none" xmlns="http://www.w3.org/2000/svg">
<rect width="36" height="36" rx="8" fill="#D0F0FD"/>
<path d="M18.4 22.04C18.16 22.2267 17.82 22.2267 17.58 22.04L13.48 18.8533C13.24 18.6667 12.9066 18.6667 12.6666 18.8533C12.3266 19.12 12.3266 19.6333 12.6666 19.9L17.1733 23.4067C17.6533 23.78 18.3266 23.78 18.8133 23.4067L23.32 19.9C23.66 19.6333 23.66 19.12 23.32 18.8533L23.3133 18.8467C23.0733 18.66 22.74 18.66 22.5 18.8467L18.4 22.04ZM18.82 20.0267L23.3266 16.52C23.6666 16.2533 23.6666 15.7333 23.3266 15.4667L18.82 11.96C18.34 11.5867 17.6666 11.5867 17.18 11.96L12.6733 15.4733C12.3333 15.74 12.3333 16.26 12.6733 16.5267L17.18 20.0333C17.66 20.4067 18.34 20.4067 18.82 20.0267Z" fill="#01A9DB"/>
</svg>
